# AST/ASF file generated using VICON BodyLanguage
# -----------------------------------------------
:version 1.10
:name VICON
:units
  mass 1.0
  length 0.45
  angle deg
:documentation
   .ast/.asf automatically generated from VICON data using
   VICON BodyBuilder and BodyLanguage model FoxedUp or BRILLIANT.MOD
:root
   order TX TY TZ RX RY RZ
   axis XYZ
   position 0 0 0  
   orientation 0 0 0 
:bonedata
  begin
     id 1 
     name lhipjoint
     direction 0.662698 -0.695252 0.27831 
     length 2.53073 
     axis 0 0 0  XYZ
  end
  begin
     id 2 
     name lfemur
     direction 0.34202 -0.939693 0  
     length 7.16147  
     axis 0 0 20  XYZ
    dof rx ry rz
    limits (-160.0 20.0)
           (-70.0 70.0)
           (-60.0 70.0)
  end
  begin
     id 3 
     name ltibia
     direction 0.34202 -0.939693 0   
     length 7.63967   
     axis 0 0 20   XYZ
    dof rx
    limits (-10.0 170.0)
  end
  begin
     id 4 
     name lfoot
     direction 0.0938457 -0.257721 0.961651   
     length 1.89793   
     axis -90 7.62852e-016 20   XYZ
    dof rx rz
    limits (-45.0 90.0)
           (-70.0 20.0)
  end
  begin
     id 5 
     name ltoes
     direction -0.00116841 -0.0030592 0.999995   
     length 0.955649   
     axis -90 7.62852e-016 20   XYZ
    dof rx
    limits (-90.0 20.0)
  end
  begin
     id 6 
     name rhipjoint
     direction -0.649445 -0.705948 0.282592   
     length 2.49238  
     axis 0 0 0  XYZ 
  end
  begin
     id 7 
     name rfemur
     direction -0.34202 -0.939693 0   
     length 6.90728   
     axis 0 0 -20   XYZ
    dof rx ry rz
    limits (-160.0 20.0)
           (-70.0 70.0)
           (-70.0 60.0)
  end
  begin
     id 8 
     name rtibia
     direction -0.34202 -0.939693 0   
     length 7.72868   
     axis 0 0 -20   XYZ
    dof rx
    limits (-10.0 170.0)
 end
 begin
     id 9 
     name rfoot
     direction -0.0920068 -0.252865 0.963117   
     length 1.97476  
     axis -90 -7.62852e-016 -20   XYZ
    dof rx rz
    limits (-45.0 90.0)
           (-20.0 70.0)
  end
  begin
     id 10 
     name rtoes
     direction 0.000391322 0.00230649 0.999997   
     length 0.992641   
     axis -90 -7.62852e-016 -20   XYZ
    dof rx
    limits (-90.0 20.0)
  end
  begin
     id 11 
     name lowerback
     direction -0.00875327 0.998321 -0.0572635   
     length 2.20024   
     axis 0 0 0   XYZ
    dof rx ry rz
    limits (-20.0 45.0)
           (-30.0 30.0)
           (-30.0 30.0)
  end
  begin
     id 12 
     name upperback
     direction 0.00753931 0.999972 -0.000360425   
     length 2.20538   
     axis 0 0 0   XYZ
    dof rx ry rz
    limits (-20.0 45.0)
           (-30.0 30.0)
           (-30.0 30.0)
  end
  begin
     id 13 
     name thorax
     direction 0.0117767 0.999601 0.0256663   
     length 2.21508   
     axis 0 0 0   XYZ
    dof rx ry rz
    limits (-20.0 45.0)
           (-30.0 30.0)
           (-30.0 30.0)
  end
  begin
     id 14 
     name lowerneck
     direction 0.060228 0.994909 0.0807986   
     length 1.7607   
     axis 0 0 0   XYZ
    dof rx ry rz
    limits (-20.0 45.0)
           (-30.0 30.0)
           (-30.0 30.0)
  end
  begin
     id 15 
     name upperneck
     direction -0.0563647 0.959594 -0.275685   
     length 1.75612   
     axis 0 0 0   XYZ
    dof rx ry rz
    limits (-20.0 45.0)
           (-30.0 30.0)
           (-30.0 30.0)
  end
  begin
     id 16
     name head
     direction -0.0161544 0.99458 -0.102714  
     length 1.79288  
     axis 0 0 0   XYZ
    dof rx ry rz
    limits (-20.0 45.0)
           (-30.0 30.0)
           (-30.0 30.0)
  end
  begin
     id 17 
     name lclavicle
     direction 0.93913 0.332189 -0.087669  
     length 3.52087  
     axis 0 0 0   XYZ
    dof ry rz
    limits (-20.0 10.0)
           (0.0 20.0)
  end
  begin
     id 18 
     name lhumerus
     direction 1 -4.48974e-011 -2.70836e-027   
     length 5.35289   
     axis -180 -30 -90   XYZ
    dof rx ry rz
    limits (-60.0 90.0)
           (-90.0 90.0)
           (-90.0 90.0)
  end
  begin
     id 19
     name lradius
     direction 1 -4.48961e-011 -9.76021e-027   
     length 3.27727   
     axis -180 -30 -90   XYZ
    dof rx
    limits (-10.0 170.0)
  end
  begin
     id 20
     name lwrist
     direction 1 -4.49103e-011 -2.23668e-026   
     length 1.63864   
     axis 1.44924e-014 90 90   XYZ
    dof ry
    limits (-180.0 0.0)
 end
  begin
     id 21 
     name lhand
     direction 1 3.0697e-005 0.000161777   
     length 0.54443   
     axis 2.85318e-014 90 90   XYZ
    dof rx rz
    limits (-90.0 90.0)
           (-45.0 45.0)
  end
  begin
     id 22 
     name lfingers
     direction 1 -4.49027e-011 -8.9447e-026   
     length 0.438912   
     axis 5.70628e-014 90 90   XYZ
    dof rx
    limits (0.0 90.0)
  end
  begin
     id 23
     name lthumb
     direction 0.707058 2.6516e-005 0.707156   
     length 0.630274   
     axis -90 45 -3.53137e-014   XYZ
    dof rx rz
    limits (-45.0 45.0)
           (-45.0 45.0)
  end
  begin
     id 24 
     name rclavicle
     direction -0.95274 0.284984 -0.105215   
     length 3.43401  
     axis 0 0 0   XYZ 
    dof ry rz
    limits (-10.0 20.0)
           (-20.0 0.0)
  end
  begin
     id 25 
     name rhumerus
     direction -0.999999 -0.000575019 -0.00106829  
     length 5.52077   
     axis -180 30 90   XYZ
    dof rx ry rz
    limits (-90.0 60.0)
           (-90.0 90.0)
           (-90.0 90.0)
  end
  begin
     id 26 
     name rradius
     direction -1 -4.4879e-011 -6.35415e-027   
     length 3.32364   
     axis -180 30 90   XYZ
    dof rx
    limits (-10.0 170.0)
  end
  begin
     id 27 
     name rwrist
     direction -1 -4.49048e-011 -9.98542e-027   
     length 1.66182   
     axis 6.32482e-015 -90 -90   XYZ
    dof ry
    limits (-180.0 0.0)
  end
  begin
     id 28
     name rhand
     direction -1 -4.48978e-011 -1.99771e-026   
     length 0.732235   
     axis 1.27479e-014 -90 -90   XYZ
    dof rx rz
    limits (-90.0 90.0)
           (-45.0 45.0)
  end
  begin
     id 29
     name rfingers
     direction -1 -4.49144e-011 -3.99245e-026   
     length 0.590347   
     axis 2.5496e-014 -90 -90   XYZ
    dof rx
    limits (0.0 90.0)
  end
  begin
     id 30
     name rthumb
     direction -0.707107 -6.35121e-011 0.707107   
     length 0.847624   
     axis -90 -45 -2.82974e-014   XYZ
    dof rx rz
    limits (-45.0 45.0)
           (-45.0 45.0)
  end
:hierarchy
  begin
    root lhipjoint rhipjoint lowerback
    lhipjoint lfemur
    lfemur ltibia
    ltibia lfoot
    lfoot ltoes
    rhipjoint rfemur
    rfemur rtibia
    rtibia rfoot
    rfoot rtoes
    lowerback upperback
    upperback thorax
    thorax lowerneck lclavicle rclavicle
    lowerneck upperneck
    upperneck head
    lclavicle lhumerus
    lhumerus lradius
    lradius lwrist
    lwrist lhand lthumb
    lhand lfingers
    rclavicle rhumerus
    rhumerus rradius
    rradius rwrist
    rwrist rhand rthumb
    rhand rfingers
  end

#!OML:ASF G:\Work\Work\Patient Classification 1\Elijah\terrain1\Elijah.ASF
:FULLY-SPECIFIED
:DEGREES
4421
root 16.1613 22.7168 -10.1219 544.988 2.2955 -182.648
lowerback 8.9823 -1.23162 -8.16847
upperback 2.92328 -2.03022 -2.36697
thorax -1.76415 -0.85696 2.32228
lowerneck -6.33991 13.9097 16.8203
upperneck 26.2448 25.1617 -12.7264
head 13.7191 12.4758 -3.32696
rclavicle 1.51076e-014 6.52014e-014
rhumerus -38.0704 7.65468 -88.1838
rradius 41.5716
rwrist -8.25303
rhand -17.9046 23.5135
rfingers 7.12502
rthumb 8.36242 -6.30094
lclavicle 1.51076e-014 6.52014e-014
lhumerus -14.6824 -7.9606 77.5921
lradius 58.316
lwrist 10.8369
lhand -19.9342 27.4465
lfingers 7.12502
lthumb 6.40336 57.3297
rfemur -48.1728 -14.7297 23.9449
rtibia 83.713
rfoot -10.4595 -0.448396
rtoes -23.2443
lfemur -22.4063 -5.05704 -25.6067
ltibia 42.6116
lfoot -22.1519 -3.62532
ltoes 1.82851
4422
root 16.1802 22.7082 -10.2307 544.942 2.57729 -181.861
lowerback 8.72558 -0.818954 -7.24663
upperback 2.87687 -1.40463 -2.35904
thorax -1.7627 -0.554191 1.75493
lowerneck -4.96275 13.3086 17.1695
upperneck 25.6734 24.4003 -12.9089
head 13.1376 12.2912 -3.74601
rclavicle 1.96797e-014 4.85035e-014
rhumerus -38.7994 6.36375 -88.0378
rradius 41.6961
rwrist -7.82795
rhand -17.8189 23.1371
rfingers 7.12502
rthumb 8.44515 -6.67404
lclavicle 1.96797e-014 4.85035e-014
lhumerus -14.9115 -9.4168 77.5711
lradius 59.8104
lwrist 11.0263
lhand -24.2348 19.8792
lfingers 7.12502
lthumb 2.25056 49.8471
rfemur -49.1625 -14.1485 25.5905
rtibia 82.6078
rfoot -10.4969 -1.57506
rtoes -22.1378
lfemur -22.0593 -4.51949 -24.7339
ltibia 42.7657
lfoot -22.4746 -3.61988
ltoes 1.05918
4423
root 16.2173 22.6818 -10.3026 545.199 3.25261 -181.133
lowerback 8.78411 -0.604974 -7.25294
upperback 3.16788 -1.09694 -2.0574
thorax -1.51009 -0.414859 2.04065
lowerneck -5.88839 13.6257 17.0441
upperneck 25.652 24.5882 -12.9349
head 13.3394 12.2527 -3.61518
rclavicle -3.04141e-014 -5.40694e-014
rhumerus -37.9803 6.496 -88.0275
rradius 41.3497
rwrist -7.54733
rhand -17.8124 23.4729
rfingers 7.12502
rthumb 8.45137 -6.33804
lclavicle -3.04141e-014 -5.40694e-014
lhumerus -13.5666 -9.81521 77.1441
lradius 60.3368
lwrist 11.63
lhand -23.8612 19.8237
lfingers 7.12502
lthumb 2.61142 49.7875
rfemur -50.8338 -12.7977 27.3462
rtibia 81.3929
rfoot -9.79959 -3.18007
rtoes -20.0005
lfemur -22.3512 -3.7153 -23.7945
ltibia 42.9756
lfoot -22.5306 -3.68513
ltoes 0.952081
4424
root 16.1923 22.6865 -10.4497 545.1 2.40697 -182.514
lowerback 8.52403 -0.685113 -7.83665
upperback 2.9312 -1.22618 -2.59866
thorax -1.596 -0.459041 1.813
lowerneck -4.12863 12.9791 17.6109
upperneck 25.1139 23.9788 -13.3239
head 12.7901 12.1741 -4.12867
rclavicle -2.06736e-014 -4.92986e-014
rhumerus -38.9878 5.68223 -87.8953
rradius 40.6628
rwrist -7.39469
rhand -17.8481 24.4481
rfingers 7.12502
rthumb 8.41693 -5.36422
lclavicle -2.06736e-014 -4.92986e-014
lhumerus -14.2171 -11.2835 77.4016
lradius 61.4946
lwrist 12.0183
lhand -29.4084 11.9826
lfingers 7.12502
lthumb -2.74609 41.9446
rfemur -51.5585 -14.4512 26.1387
rtibia 80.2502
rfoot -9.87345 -3.00549
rtoes -18.7253
lfemur -21.5814 -4.2494 -25.5339
ltibia 42.9133
lfoot -22.9404 -3.79013
ltoes 0.207446
4425
root 16.2047 22.685 -10.6013 544.844 2.24134 -182.36
lowerback 8.07963 -1.06264 -8.28081
upperback 3.89751 -1.5742 -2.34066
thorax -0.281228 -0.676834 2.33772
lowerneck -6.0643 13.8569 17.6188
upperneck 25.1558 24.8289 -13.6666
head 13.4258 12.2944 -3.88923
rclavicle 1.43125e-014 1.03368e-014
rhumerus -37.2374 6.73968 -88.032
rradius 39.7517
rwrist -7.42204
rhand -17.6341 24.717
rfingers 7.12502
rthumb 8.62346 -5.08691
lclavicle 1.43125e-014 1.03368e-014
lhumerus -12.9403 -10.1096 76.8202
lradius 62.4014
lwrist 11.5142
lhand -25.8398 16.9077
lfingers 7.12502
lthumb 0.700466 46.8863
rfemur -51.7281 -14.616 26.7236
rtibia 78.7937
rfoot -10.4039 -3.28713
rtoes -18.2732
lfemur -20.6795 -3.9764 -25.4509
ltibia 42.8392
lfoot -23.3228 -3.80701
ltoes -1.36843
4426
root 16.2135 22.6642 -10.7342 544.79 2.35745 -182.771
lowerback 8.32359 -0.776408 -8.63974
upperback 3.3514 -1.31723 -2.49221
thorax -1.00684 -0.522796 2.36964
lowerneck -4.52628 13.2117 17.8949
upperneck 25.0778 24.2823 -13.6804
head 13.0142 12.2506 -4.19339
rclavicle 9.54166e-015 1.35174e-014
rhumerus -39.0368 6.19137 -88.0121
rradius 40.4478
rwrist -7.10036
rhand -17.1465 23.9607
rfingers 7.12502
rthumb 9.09394 -5.82322
lclavicle 9.54166e-015 1.35174e-014
lhumerus -14.1167 -11.1887 77.0525
lradius 63.6406
lwrist 11.2274
lhand -24.7831 18.0324
lfingers 7.12502
lthumb 1.72104 48.0052
rfemur -52.4079 -14.4985 26.7274
rtibia 77.3283
rfoot -10.7801 -3.13093
rtoes -18.9566
lfemur -20.1126 -3.63193 -25.9784
ltibia 42.7962
lfoot -23.5084 -3.79428
ltoes -2.12364
4427
root 16.1783 22.6368 -10.8214 544.779 1.35948 -183.735
lowerback 9.09792 -0.978681 -8.89214
upperback 3.2289 -1.67335 -2.77432
thorax -1.52344 -0.660309 2.26279
lowerneck -4.54907 13.0495 17.6498
upperneck 25.1794 24.0602 -13.5359
head 12.9575 12.1559 -4.15604
rclavicle -1.8487e-014 -2.3059e-014
rhumerus -39.07 5.90086 -87.8034
rradius 39.7482
rwrist -6.61617
rhand -16.7738 23.5942
rfingers 7.12502
rthumb 9.45357 -6.17375
lclavicle -1.8487e-014 -2.3059e-014
lhumerus -14.1754 -11.8952 77.1725
lradius 64.6938
lwrist 11.2201
lhand -24.9657 17.0426
lfingers 7.12502
lthumb 1.54468 47.0167
rfemur -53.3394 -16.0833 26.0094
rtibia 75.8323
rfoot -10.8222 -2.09495
rtoes -20.6923
lfemur -19.7042 -4.02566 -27.2596
ltibia 43.0114
lfoot -23.6686 -3.94216
ltoes -4.96004
4428
root 16.2347 22.619 -10.94 544.88 2.28835 -182.308
lowerback 8.85802 -0.511502 -8.24886
upperback 3.38034 -0.997408 -2.23814
thorax -1.31177 -0.357003 2.39602
lowerneck -5.32576 13.1673 17.5709
upperneck 25.4259 24.1019 -13.4795
head 13.2047 12.1047 -4.04578
rclavicle 6.95746e-015 -2.8625e-014
rhumerus -39.0392 6.08858 -87.7563
rradius 39.4457
rwrist -6.32305
rhand -16.6869 23.5548
rfingers 7.12502
rthumb 9.53745 -6.20932
lclavicle 6.95746e-015 -2.8625e-014
lhumerus -13.7513 -12.31 77.1732
lradius 65.5035
lwrist 11.5386
lhand -25.2484 16.6378
lfingers 7.12502
lthumb 1.27168 46.6138
rfemur -53.8289 -14.0236 28.1959
rtibia 73.7395
rfoot -8.95859 -4.03408
rtoes -18.126
lfemur -19.7321 -2.41806 -25.5352
ltibia 43.5069
lfoot -24.3405 -3.82078
ltoes -11.4142
4429
root 16.2235 22.5941 -11.0532 544.846 1.76207 -182.217
lowerback 8.49131 -0.646312 -7.79776
upperback 3.75929 -1.0492 -2.28846
thorax -0.720023 -0.396616 2.09064
lowerneck -5.29908 13.1374 17.7999
upperneck 25.101 23.9687 -13.7652
head 13.1194 12.0284 -4.21672
rclavicle 9.34288e-015 4.21423e-014
rhumerus -38.7785 6.25404 -87.8786
rradius 38.8004
rwrist -6.1032
rhand -17.0163 24.4364
rfingers 7.12502
rthumb 9.2196 -5.34205
lclavicle 9.34288e-015 4.21423e-014
lhumerus -13.2046 -12.7445 77.0262
lradius 66.3042
lwrist 11.8885
lhand -18.3281 24.5997
lfingers 7.12502
lthumb 7.95368 54.4301
rfemur -53.8745 -14.6678 28.625
rtibia 71.8309
rfoot -9.13503 -3.36789
rtoes -19.2126
lfemur -19.4924 -2.42658 -25.5524
ltibia 43.9567
lfoot -24.9373 -3.44722
ltoes -15.7483
4430
root 16.215 22.5772 -11.1765 544.866 1.23885 -182.428
lowerback 8.63343 -0.675722 -7.64842
upperback 3.48949 -1.12739 -2.39076
thorax -1.08075 -0.422425 1.91237
lowerneck -4.12431 12.6903 17.9987
upperneck 24.8379 23.5831 -13.919
head 12.7485 11.9835 -4.48859
rclavicle -6.36111e-015 3.97569e-014
rhumerus -39.4206 6.10252 -87.898
rradius 37.9547
rwrist -5.72285
rhand -16.7158 24.7639
rfingers 7.12502
rthumb 9.50956 -5.00155
lclavicle -6.36111e-015 3.97569e-014
lhumerus -13.835 -13.5375 77.1781
lradius 67.2344
lwrist 12.1833
lhand -20.073 22.8373
lfingers 7.12502
lthumb 6.26933 52.7245
rfemur -53.9456 -15.3755 28.6819
rtibia 69.7661
rfoot -8.18147 -3.21
rtoes -17.3532
lfemur -19.336 -2.54168 -25.8833
ltibia 44.4927
lfoot -24.8642 -3.76975
ltoes -14.6469
4431
root 16.2095 22.5586 -11.3144 544.824 0.830156 -182.92
lowerback 8.74365 -0.643822 -7.88715
upperback 3.12914 -1.15937 -2.50963
thorax -1.51189 -0.423549 1.92855
lowerneck -2.93468 12.1908 18.2173
upperneck 24.7747 23.2226 -14.0286
head 12.4566 11.9688 -4.73806
rclavicle 1.68967e-014 -1.35174e-014
rhumerus -40.3335 6.04481 -87.8914
rradius 37.1606
rwrist -5.48521
rhand -15.9519 24.2621
rfingers 7.12502
rthumb 10.2466 -5.46835
lclavicle 1.68967e-014 -1.35174e-014
lhumerus -14.7067 -14.372 77.4183
lradius 68.1759
lwrist 12.4407
lhand -18.1989 24.2611
lfingers 7.12502
lthumb 8.07833 54.0867
rfemur -53.9149 -16.0855 28.4361
rtibia 67.6528
rfoot -7.31965 -2.35843
rtoes -16.9024
lfemur -19.1287 -2.46386 -26.5173
ltibia 45.2072
lfoot -25.0833 -4.00686
ltoes -13.1832
4432
root 16.2105 22.5537 -11.4677 544.692 0.361921 -183.161
lowerback 7.39992 -1.16605 -8.46737
upperback 4.69152 -1.50662 -2.37044
thorax 0.931804 -0.672337 2.38047
lowerneck -5.74926 13.2675 17.7833
upperneck 24.8196 24.0522 -14.2117
head 13.1843 11.9648 -4.32467
rclavicle 1.17283e-014 1.51076e-014
rhumerus -37.6538 7.45202 -88.014
rradius 36.1295
rwrist -5.50521
rhand -15.7004 24.2699
rfingers 7.12502
rthumb 10.4892 -5.44839
lclavicle 1.17283e-014 1.51076e-014
lhumerus -12.4457 -13.3263 76.5469
lradius 68.9474
lwrist 12.8267
lhand -17.311 25.7295
lfingers 7.12502
lthumb 8.93526 55.5203
rfemur -53.5301 -16.8328 28.3944
rtibia 65.4803
rfoot -7.25322 -1.90276
rtoes -21.7681
lfemur -18.8068 -2.35881 -26.7987
ltibia 45.7581
lfoot -25.0092 -4.74078
ltoes -8.12288
4433
root 16.2519 22.5228 -11.5418 545.041 0.505822 -181.824
lowerback 7.85709 -0.842329 -7.39366
upperback 3.94574 -1.22166 -1.96554
thorax -0.165481 -0.512004 2.20387
lowerneck -4.27453 12.6859 18.1535
upperneck 24.7222 23.6107 -14.3303
head 12.8247 11.9559 -4.64392
rclavicle -1.11319e-014 -1.03368e-014
rhumerus -39.0322 7.473 -88.1937
rradius 35.575
rwrist -5.26833
rhand -15.7845 25.0752
rfingers 7.12502
rthumb 10.408 -4.64721
lclavicle -1.11319e-014 -1.03368e-014
lhumerus -13.824 -14.4703 76.7373
lradius 70.172
lwrist 13.5492
lhand -17.1935 26.5567
lfingers 7.12502
lthumb 9.04867 56.3426
rfemur -53.7347 -15.4423 30.1278
rtibia 62.9218
rfoot -5.55355 -2.31383
rtoes -21.0745
lfemur -19.8563 -1.70889 -25.0375
ltibia 46.8802
lfoot -24.4219 -6.22773
ltoes -0.7836
4434
root 16.2208 22.4981 -11.696 544.726 -0.453346 -183.179
lowerback 8.07994 -0.430142 -8.04257
upperback 3.94445 -1.64737 -2.27394
thorax -0.286846 -1.10684 2.28462
lowerneck -3.96099 12.4088 18.05
upperneck 24.8741 23.3779 -14.2772
head 12.7513 11.9024 -4.68792
rclavicle 1.45113e-014 6.36111e-015
rhumerus -39.5243 7.86013 -88.1706
rradius 34.6325
rwrist -5.11812
rhand -15.7872 25.7462
rfingers 7.12502
rthumb 10.4054 -3.97632
lclavicle 1.45113e-014 6.36111e-015
lhumerus -14.6064 -15.1815 77.0275
lradius 71.3459
lwrist 14.2454
lhand -16.8436 26.8766
lfingers 7.12502
lthumb 9.38628 56.6476
rfemur -53.4066 -17.4279 28.8372
rtibia 60.8741
rfoot -4.64296 -1.08845
rtoes -25.5495
lfemur -19.0863 -2.267 -26.6689
ltibia 47.5993
lfoot -24.3496 -7.23915
ltoes 3.23055
